<?xml version="1.0" encoding="UTF-8"?>
<svg version="1.1" xmlns="http://www.w3.org/2000/svg" width="724" height="140">
<path d="M0 0 C1.20398438 0.00193359 2.40796875 0.00386719 3.6484375 0.00585938 C5.535625 0.02422852 5.535625 0.02422852 7.4609375 0.04296875 C8.72679688 0.04361328 9.99265625 0.04425781 11.296875 0.04492188 C20.69577156 0.09030281 20.69577156 0.09030281 21.8359375 1.23046875 C23.57342143 18.60530802 13.64160964 37.42727322 3.18115234 50.62158203 C-0.30251067 54.78806829 -4.19814681 58.5265218 -8.1640625 62.23046875 C-9.1684484 63.22606353 -10.17047256 64.22409952 -11.1640625 65.23046875 C-10.52339844 65.78734375 -9.88273437 66.34421875 -9.22265625 66.91796875 C6.82054413 81.07232735 20.57640592 100.35029469 21.98046875 122.51171875 C22.01739043 124.41821997 21.93794437 126.32634042 21.8359375 128.23046875 C19.11894732 130.94745893 11.23750628 129.56427156 7.5859375 129.60546875 C5.72388672 129.66154297 5.72388672 129.66154297 3.82421875 129.71875 C-5.30467649 129.80718924 -5.30467649 129.80718924 -9.40625 127.0546875 C-11.16937518 124.22193304 -12.18963231 121.88617075 -13.0390625 118.66796875 C-17.27994525 104.87661804 -25.1136548 94.62447785 -37.65234375 87.5390625 C-42.83566474 84.83857645 -48.08740775 82.59543906 -53.6015625 80.66796875 C-57.1640625 79.23046875 -57.1640625 79.23046875 -59.1640625 76.23046875 C-59.60082202 72.43240798 -59.48824583 68.61341776 -59.4765625 64.79296875 C-59.49267578 63.74302734 -59.50878906 62.69308594 -59.52539062 61.61132812 C-59.52603516 60.60005859 -59.52667969 59.58878906 -59.52734375 58.546875 C-59.53032471 57.62334229 -59.53330566 56.69980957 -59.53637695 55.74829102 C-59.09442613 52.75954423 -58.22240429 51.41232949 -56.1640625 49.23046875 C-53.6328125 48.17578125 -53.6328125 48.17578125 -50.6640625 47.35546875 C-35.2699637 42.55176804 -23.734573 33.5820515 -16.1640625 19.23046875 C-14.6776787 15.94604003 -13.39148905 12.61885754 -12.1640625 9.23046875 C-9.55328908 2.3533095 -7.68772967 -0.02848135 0 0 Z " fill="#423FD1" transform="translate(77.1640625,7.76953125)"/>
<path d="M0 0 C1.18916016 -0.02449219 2.37832031 -0.04898437 3.60351562 -0.07421875 C4.75142578 -0.07808594 5.89933594 -0.08195313 7.08203125 -0.0859375 C8.13237549 -0.09415527 9.18271973 -0.10237305 10.26489258 -0.11083984 C13.93571536 0.49937963 15.56329108 1.77826214 18.1875 4.375 C19.31821574 6.94894086 20.22469216 9.33938561 21.0625 12 C23.48095965 18.98560949 26.37402859 24.67888778 31.1875 30.375 C31.78175781 31.08011719 32.37601563 31.78523438 32.98828125 32.51171875 C40.5216245 40.70013533 49.91897395 45.47433595 60.59375 48.2578125 C64.11980469 49.77656497 65.31187716 50.99714219 67.1875 54.375 C67.75905367 57.88885811 67.74614544 61.32206377 67.6875 64.875 C67.71070313 66.28072266 67.71070313 66.28072266 67.734375 67.71484375 C67.71099553 71.83547455 67.55951767 74.66274507 65.6328125 78.3515625 C62.53536877 80.91462296 59.33603997 82.0617401 55.5625 83.25 C48.57689051 85.66845965 42.88361222 88.56152859 37.1875 93.375 C36.48238281 93.96925781 35.77726562 94.56351562 35.05078125 95.17578125 C26.86236467 102.7091245 22.08816405 112.10647395 19.3046875 122.78125 C17.85265786 126.15239573 16.23893236 127.35711304 13.1875 129.375 C10.2331543 129.82910156 10.2331543 129.82910156 7.01171875 129.765625 C5.85478516 129.75273437 4.69785156 129.73984375 3.50585938 129.7265625 C1.70858398 129.67628906 1.70858398 129.67628906 -0.125 129.625 C-1.34251953 129.60695312 -2.56003906 129.58890625 -3.81445312 129.5703125 C-6.81460422 129.52325131 -9.81314889 129.4575131 -12.8125 129.375 C-16.20533531 123.3429303 -13.55259463 116.72605245 -11.8125 110.375 C-6.21412204 91.74862098 4.39420085 78.83004386 18.1875 65.375 C14.87802396 61.38665708 11.50747726 57.69589021 7.75 54.125 C-5.43609103 41.07187796 -14.14897496 20.90266068 -14.8125 2.375 C-11.1140413 -1.3234587 -4.99465553 0.00536195 0 0 Z " fill="#4340D2" transform="translate(120.8125,7.625)"/>
<path d="M0 0 C1.7015625 0.2475 1.7015625 0.2475 3.4375 0.5 C5.82698197 4.08422296 5.73983168 5.87232596 5.8515625 10.13671875 C5.89023437 11.43544922 5.92890625 12.73417969 5.96875 14.07226562 C6.00020517 15.44400573 6.03145251 16.81575061 6.0625 18.1875 C6.10069197 19.57098785 6.13974442 20.95445223 6.1796875 22.33789062 C6.27410517 25.7251245 6.35968118 29.11235069 6.4375 32.5 C7.16066406 31.86771484 7.16066406 31.86771484 7.8984375 31.22265625 C8.53007813 30.67480469 9.16171875 30.12695312 9.8125 29.5625 C10.43898438 29.01722656 11.06546875 28.47195312 11.7109375 27.91015625 C16.04013427 24.37431907 21.0991549 25.0046134 26.4375 25.5 C31.56954125 26.84595044 33.9776886 29.93411396 36.75 34.3125 C41.49678461 42.49257539 41.80189249 49.91123261 41.8125 59.1875 C41.83699219 60.29544922 41.86148438 61.40339844 41.88671875 62.54492188 C41.92073535 72.24532153 40.12738081 82.30241948 33.9140625 90.09765625 C30.08392368 93.73527486 26.00020645 95.3113975 20.8125 95.9375 C14.37891675 95.10351699 10.75257986 92.19582221 6.4375 87.5 C6.06625 88.634375 5.695 89.76875 5.3125 90.9375 C4.50390625 92.875 4.50390625 92.875 3.4375 94.5 C0.25 95.4375 0.25 95.4375 -2.5625 95.5 C-6.04377364 91.99543998 -7.02556659 89.4777859 -7.09350586 84.53923035 C-7.08383789 83.77024918 -7.07416992 83.00126801 -7.06420898 82.20898438 C-7.06961197 81.38723221 -7.07501495 80.56548004 -7.08058167 79.71882629 C-7.09306028 77.01009798 -7.07658409 74.30243437 -7.05859375 71.59375 C-7.05874876 69.70715275 -7.06023804 67.82055519 -7.06300354 65.93395996 C-7.06438714 61.98301082 -7.05183592 58.03242487 -7.02905273 54.08154297 C-7.00066827 49.0206649 -7.00340597 43.96039019 -7.01614285 38.89946747 C-7.02310241 35.00464741 -7.01530756 31.10996648 -7.00288582 27.21516418 C-6.99837402 25.34927402 -6.99803215 23.48336892 -7.00195122 21.61747742 C-7.00486615 19.00834613 -6.98834325 16.40004227 -6.96655273 13.79101562 C-6.97105438 13.02203445 -6.97555603 12.25305328 -6.98019409 11.46076965 C-6.89821573 5.54411567 -6.44092043 0.90398883 0 0 Z M9.66015625 44.45703125 C5.39265839 51.58770658 5.3295356 61.13001195 6.97265625 69.09375 C8.32960193 73.54275223 9.94492532 77.30678887 13.4375 80.5 C16.28377591 81.83550847 16.28377591 81.83550847 19.4375 81.5 C23.76238867 78.8711461 26.37856981 76.16297274 27.96875 71.203125 C29.75864343 60.8814062 29.8445334 49.795762 23.6875 41 C17.76331635 37.05054423 13.48368395 39.34879825 9.66015625 44.45703125 Z " fill="#4141D6" transform="translate(611.5625,22.5)"/>
<path d="M0 0 C1.20398438 0.00193359 2.40796875 0.00386719 3.6484375 0.00585938 C5.535625 0.02422852 5.535625 0.02422852 7.4609375 0.04296875 C8.72679687 0.04361328 9.99265625 0.04425781 11.296875 0.04492188 C20.69577156 0.09030281 20.69577156 0.09030281 21.8359375 1.23046875 C23.573924 18.6103338 13.63979167 37.42822061 3.17236328 50.62158203 C-1.59217444 56.35747965 -6.60881989 61.57577597 -13.1640625 65.23046875 C-14.11152344 64.57691406 -14.11152344 64.57691406 -15.078125 63.91015625 C-26.34971093 56.40659328 -37.86624918 51.74865931 -51.1640625 49.23046875 C-48.93453849 47.00094474 -46.64106349 45.98174065 -43.80639648 44.66870117 C-28.49636371 37.51704028 -18.96731117 27.48446945 -12.99609375 11.52734375 C-12.72152344 10.769375 -12.44695312 10.01140625 -12.1640625 9.23046875 C-9.55328908 2.3533095 -7.68772967 -0.02848135 0 0 Z " fill="#71CCD3" transform="translate(77.1640625,7.76953125)"/>
<path d="M0 0 C3.36403367 1.18672908 6.27904163 2.90430134 9.3046875 4.7578125 C19.07689877 10.51264443 28.41126032 13.45072181 39.6796875 14.9453125 C36.79690183 16.86716961 34.27864391 17.91237422 31.0546875 19.1328125 C25.06963908 21.59469611 20.49044096 24.65564645 15.6796875 28.9453125 C15.06480469 29.46738281 14.44992188 29.98945312 13.81640625 30.52734375 C5.93104357 37.71333945 1.45502401 47.15742404 -1.203125 57.3515625 C-2.65515464 60.72270823 -4.26888014 61.92742554 -7.3203125 63.9453125 C-10.2746582 64.39941406 -10.2746582 64.39941406 -13.49609375 64.3359375 C-14.65302734 64.32304687 -15.80996094 64.31015625 -17.00195312 64.296875 C-18.20013672 64.26335937 -19.39832031 64.22984375 -20.6328125 64.1953125 C-22.4590918 64.16824219 -22.4590918 64.16824219 -24.32226562 64.140625 C-27.32241672 64.09356381 -30.32096139 64.0278256 -33.3203125 63.9453125 C-36.71314781 57.9132428 -34.06040713 51.29636495 -32.3203125 44.9453125 C-27.91806893 30.29859556 -20.90890879 19.02597781 -10.3203125 7.9453125 C-9.60230469 7.1409375 -8.88429687 6.3365625 -8.14453125 5.5078125 C-7.46003906 4.7653125 -6.77554688 4.0228125 -6.0703125 3.2578125 C-5.46703125 2.59394531 -4.86375 1.93007812 -4.2421875 1.24609375 C-2.3203125 -0.0546875 -2.3203125 -0.0546875 0 0 Z " fill="#80D2D8" transform="translate(141.3203125,73.0546875)"/>
<path d="M0 0 C4.97478799 2.61034503 6.58883564 6.66436871 8.35449219 11.77709961 C10.0505217 18.94708947 9.8268121 26.30698475 9.8671875 33.640625 C9.89638695 36.0832437 9.93099565 38.52568386 9.96968079 40.96817017 C9.99191929 42.47620471 10.00788809 43.98434941 10.01652527 45.49252319 C10.05472846 49.21193324 10.32950308 52.64451489 11.1796875 56.265625 C11.63405605 60.68268316 11.9448097 64.07543491 9.4921875 67.890625 C7.1796875 69.265625 7.1796875 69.265625 4.7421875 69.453125 C0.96513385 67.70278306 -0.68608582 64.7439604 -2.8203125 61.265625 C-3.32820313 61.67554688 -3.83609375 62.08546875 -4.359375 62.5078125 C-10.6391686 67.42345618 -15.61116512 69.99858459 -23.8203125 69.265625 C-29.23748237 67.24746367 -31.858226 64.34991206 -34.90625 59.55859375 C-37.20663304 53.78797475 -36.65694923 45.62720131 -35.16796875 39.64453125 C-32.97434898 34.66416705 -29.6980547 32.55254773 -24.8203125 30.265625 C-21.58976367 29.03923501 -18.31553406 28.01226362 -15.0078125 27.015625 C-14.14994141 26.7475 -13.29207031 26.479375 -12.40820312 26.203125 C-6.12615593 24.265625 -6.12615593 24.265625 -3.8203125 24.265625 C-4.10272891 22.80547209 -4.39657864 21.34752707 -4.6953125 19.890625 C-4.85773438 19.07851562 -5.02015625 18.26640625 -5.1875 17.4296875 C-5.68690182 15.07888577 -5.68690182 15.07888577 -7.8203125 13.265625 C-11.20433498 12.70555159 -14.4336335 12.73319735 -17.8203125 13.265625 C-20.71136053 15.78602584 -21.71289761 18.02277395 -23.2578125 21.515625 C-24.8203125 24.265625 -24.8203125 24.265625 -27.2578125 25.328125 C-30.49427782 25.24918682 -31.508911 24.48998627 -33.8203125 22.265625 C-34.81492141 17.715485 -34.1775281 13.31742649 -32.6953125 8.953125 C-25.05259818 -2.00143219 -12.28508968 -3.19888762 0 0 Z M-12.7578125 38.015625 C-13.79808594 38.34046875 -14.83835937 38.6653125 -15.91015625 39 C-19.03188763 40.35763888 -20.71536999 41.60569765 -22.8203125 44.265625 C-23.26934212 48.4565681 -23.26597076 51.73300751 -20.8203125 55.265625 C-17.67119771 56.84018239 -15.30022434 56.61361618 -11.8203125 56.265625 C-7.66000865 53.51825453 -4.91517363 51.19250009 -3.8203125 46.265625 C-3.67639233 42.92462112 -3.70352593 39.60701851 -3.8203125 36.265625 C-7.16988281 36.265625 -9.5723656 36.99187198 -12.7578125 38.015625 Z " fill="#4141D6" transform="translate(359.8203125,48.734375)"/>
<path d="M0 0 C6.35884154 3.63190001 9.95009957 8.98735361 12.30859375 15.80078125 C13.8053252 21.42642705 14.53072933 27.35353832 13.49609375 33.11328125 C11.8996582 35.75537109 11.8996582 35.75537109 9.49609375 38.11328125 C6.28808594 38.6809082 6.28808594 38.6809082 2.54296875 38.6015625 C1.55263641 38.59095039 1.55263641 38.59095039 0.54229736 38.5801239 C-1.55761117 38.55222852 -3.65481004 38.48951412 -5.75390625 38.42578125 C-7.18095095 38.40069142 -8.60803763 38.37787942 -10.03515625 38.35742188 C-13.52561373 38.30242245 -17.01449536 38.21619037 -20.50390625 38.11328125 C-19.85850753 40.21758126 -19.21257249 42.32171679 -18.56640625 44.42578125 C-18.20675781 45.59753906 -17.84710937 46.76929688 -17.4765625 47.9765625 C-16.84018346 50.02882102 -16.18337246 52.07488262 -15.50390625 54.11328125 C-11.78532234 55.35280922 -8.36791775 55.6522691 -4.50390625 55.11328125 C-1.29471862 53.17284222 0.78841812 50.798364 3.12109375 47.92578125 C5.49609375 45.11328125 5.49609375 45.11328125 8.49609375 44.11328125 C11.49609375 45.11328125 11.49609375 45.11328125 12.49609375 47.11328125 C13.09782046 52.92997276 12.46648865 56.44904163 9.125 61.28515625 C4.37441608 66.61674684 -1.26340429 68.89724779 -8.25390625 69.36328125 C-15.06998493 69.23682339 -20.87264739 66.70595239 -25.8984375 62.1171875 C-34.21504206 51.73660808 -34.29691154 37.74849894 -33.50390625 25.11328125 C-32.23369258 15.57591419 -28.82029239 7.04278604 -21.00390625 1.05078125 C-14.78539615 -2.38135798 -6.60398689 -2.33869739 0 0 Z M-16.31640625 14.48828125 C-19.24367898 18.87657616 -19.24367898 18.87657616 -20.50390625 28.11328125 C-13.57390625 28.11328125 -6.64390625 28.11328125 0.49609375 28.11328125 C-0.22715263 19.46418114 -0.22715263 19.46418114 -4.50390625 13.11328125 C-9.01348826 10.85849024 -12.52803258 11.28921015 -16.31640625 14.48828125 Z " fill="#4141D6" transform="translate(693.50390625,48.88671875)"/>
<path d="M0 0 C6.35884154 3.63190001 9.95009957 8.98735361 12.30859375 15.80078125 C13.8053252 21.42642705 14.53072933 27.35353832 13.49609375 33.11328125 C11.8996582 35.75537109 11.8996582 35.75537109 9.49609375 38.11328125 C6.28808594 38.6809082 6.28808594 38.6809082 2.54296875 38.6015625 C1.55263641 38.59095039 1.55263641 38.59095039 0.54229736 38.5801239 C-1.55761117 38.55222852 -3.65481004 38.48951412 -5.75390625 38.42578125 C-7.18095095 38.40069142 -8.60803763 38.37787942 -10.03515625 38.35742188 C-13.52561373 38.30242245 -17.01449536 38.21619037 -20.50390625 38.11328125 C-19.85850753 40.21758126 -19.21257249 42.32171679 -18.56640625 44.42578125 C-18.20675781 45.59753906 -17.84710938 46.76929688 -17.4765625 47.9765625 C-16.84018346 50.02882102 -16.18337246 52.07488262 -15.50390625 54.11328125 C-11.78532234 55.35280922 -8.36791775 55.6522691 -4.50390625 55.11328125 C-1.29471862 53.17284222 0.78841812 50.798364 3.12109375 47.92578125 C5.49609375 45.11328125 5.49609375 45.11328125 8.49609375 44.11328125 C11.49609375 45.11328125 11.49609375 45.11328125 12.49609375 47.11328125 C13.09782046 52.92997276 12.46648865 56.44904163 9.125 61.28515625 C4.37441608 66.61674684 -1.26340429 68.89724779 -8.25390625 69.36328125 C-15.06998493 69.23682339 -20.87264739 66.70595239 -25.8984375 62.1171875 C-34.21504206 51.73660808 -34.29691154 37.74849894 -33.50390625 25.11328125 C-32.23369258 15.57591419 -28.82029239 7.04278604 -21.00390625 1.05078125 C-14.78539615 -2.38135798 -6.60398689 -2.33869739 0 0 Z M-16.31640625 14.48828125 C-19.24367898 18.87657616 -19.24367898 18.87657616 -20.50390625 28.11328125 C-13.57390625 28.11328125 -6.64390625 28.11328125 0.49609375 28.11328125 C-0.22715263 19.46418114 -0.22715263 19.46418114 -4.50390625 13.11328125 C-9.01348826 10.85849024 -12.52803258 11.28921015 -16.31640625 14.48828125 Z " fill="#4141D6" transform="translate(303.50390625,48.88671875)"/>
<path d="M0 0 C3.5 0.625 3.5 0.625 5.19335938 2.59057617 C6.97573817 6.72981123 6.92218235 10.33985709 6.90625 14.80078125 C6.91708618 15.68477097 6.92792236 16.56876068 6.93908691 17.47953796 C6.97327327 20.29893312 6.98891923 23.11792513 7 25.9375 C7.01464226 29.64231053 7.04848561 33.34623202 7.09375 37.05078125 C7.09072876 37.89063065 7.08770752 38.73048004 7.08459473 39.59577942 C7.15550807 45.23533241 8.10337619 49.49251908 10.5 54.625 C12.82587842 56.04018518 12.82587842 56.04018518 15.5 55.625 C18.26795551 54.81578127 18.26795551 54.81578127 20.5 52.625 C23.18701592 46.73482506 23.93061951 41.90968804 23.90625 35.48828125 C23.91708618 34.64581345 23.92792236 33.80334564 23.93908691 32.93534851 C23.98460853 29.36539873 23.99644708 25.79552976 24.01123047 22.2253418 C24.02694044 19.60439411 24.05992534 16.98404767 24.09375 14.36328125 C24.09072876 13.56110672 24.08770752 12.75893219 24.08459473 11.93244934 C24.14529568 7.40221778 24.43761561 4.22912973 27.5 0.625 C31 0 31 0 34.5 0.625 C37.35991723 4.27405517 37.87507195 7.0688096 37.87231445 11.63696289 C37.88165764 13.41889793 37.88165764 13.41889793 37.89118958 15.23683167 C37.88197983 16.51090378 37.87277008 17.78497589 37.86328125 19.09765625 C37.86402901 21.07045815 37.86402901 21.07045815 37.86479187 23.08311462 C37.86470236 25.86127252 37.85431599 28.63913893 37.83618164 31.41723633 C37.81347281 34.97376478 37.81295659 38.52986858 37.81969929 42.08644962 C37.82384791 45.48606677 37.81186574 48.88555372 37.80078125 52.28515625 C37.80169266 53.56125259 37.80260406 54.83734894 37.80354309 56.15211487 C37.79401108 57.3369194 37.78447906 58.52172394 37.7746582 59.74243164 C37.77005081 60.78436172 37.76544342 61.82629181 37.76069641 62.89979553 C37.49444267 65.68309391 37.07643571 67.32671495 35.5 69.625 C32.625 70.625 32.625 70.625 29.5 70.625 C26.29481693 68.28608263 25.30505987 66.41117268 24.5 62.625 C23.95730469 63.11871094 23.41460938 63.61242187 22.85546875 64.12109375 C22.14003906 64.76175781 21.42460938 65.40242188 20.6875 66.0625 C19.97980469 66.70058594 19.27210938 67.33867188 18.54296875 67.99609375 C14.7394162 71.02875419 11.21067691 70.94436793 6.5 70.625 C1.58230596 68.85463015 -1.81439805 66.10741099 -4.5 61.625 C-6.55123489 55.20166619 -6.80694047 49.22991849 -6.80078125 42.51953125 C-6.80506638 41.47729904 -6.8093515 40.43506683 -6.81376648 39.36125183 C-6.81948252 37.17028528 -6.82003027 34.97929976 -6.81567383 32.78833008 C-6.81249984 29.43733613 -6.83605601 26.08721406 -6.86132812 22.73632812 C-6.86359999 20.60156361 -6.86430514 18.46679673 -6.86328125 16.33203125 C-6.872491 15.33299271 -6.88170074 14.33395416 -6.89118958 13.30464172 C-6.81064111 1.21618591 -6.81064111 1.21618591 0 0 Z " fill="#4141D6" transform="translate(556.5,47.375)"/>
<path d="M0 0 C3 0.5625 3 0.5625 4.8125 2.375 C6 4.5625 6 4.5625 7 7.5625 C7.48210937 7.14097656 7.96421875 6.71945313 8.4609375 6.28515625 C9.09257812 5.73730469 9.72421875 5.18945312 10.375 4.625 C11.31472656 3.80708984 11.31472656 3.80708984 12.2734375 2.97265625 C15.96030413 -0.03856287 19.46850785 0.04293513 24.1015625 0.09765625 C28.17203188 0.75046738 30.32815402 2.44980752 33.34375 5.15234375 C38.07785544 12.04136039 38.44834895 19.64686157 38.3984375 27.765625 C38.40130768 28.80644226 38.40417786 29.84725952 38.40713501 30.9196167 C38.40916481 33.10461984 38.40371141 35.28964161 38.39111328 37.47460938 C38.37497916 40.81681737 38.39103291 44.15782809 38.41015625 47.5 C38.4081749 49.63021099 38.40433347 51.76042124 38.3984375 53.890625 C38.40754654 55.38447723 38.40754654 55.38447723 38.4168396 56.9085083 C38.32773167 65.68663611 38.32773167 65.68663611 35 69.5625 C32.5625 70.5625 32.5625 70.5625 30 70.5625 C26.87943304 68.82885169 26.14668209 68.00254627 25 64.5625 C24.86909359 61.56306782 24.79048774 58.58275458 24.75390625 55.58203125 C24.72095128 53.75976112 24.68773993 51.93749561 24.65429688 50.11523438 C24.60703064 47.24962724 24.56262434 44.38403658 24.52319336 41.51831055 C24.48320589 38.74768166 24.43171188 35.97744149 24.37890625 33.20703125 C24.3704921 32.36090775 24.36207794 31.51478424 24.35340881 30.64302063 C24.24408709 25.31840789 23.47211172 20.68488923 22 15.5625 C19.14356249 15.32446354 16.80054592 15.13866259 14 15.5625 C10.14572406 19.01106268 8.30887068 23.37752763 7.80935669 28.52835083 C7.72384066 30.7822373 7.69755862 33.02966823 7.69140625 35.28515625 C7.6662602 36.97461303 7.64086199 38.66406608 7.61523438 40.35351562 C7.58645549 42.99551534 7.56241183 45.63745056 7.54370117 48.27954102 C7.52202501 50.84423619 7.48260436 53.40821117 7.44140625 55.97265625 C7.44129044 56.75923111 7.44117462 57.54580597 7.4410553 58.35621643 C7.35924101 62.9014649 6.91998653 65.99916301 4 69.5625 C1 70.5625 1 70.5625 -2 70.5625 C-4.59230504 68.77470342 -4.98667605 67.60247185 -6 64.5625 C-6.10342261 62.67214962 -6.14853878 60.77838944 -6.16113281 58.88525391 C-6.17074036 57.72039459 -6.1803479 56.55553528 -6.19024658 55.3553772 C-6.19449646 54.09599335 -6.19874634 52.8366095 -6.203125 51.5390625 C-6.20882507 50.24559906 -6.21452515 48.95213562 -6.22039795 47.61947632 C-6.23089673 44.88075366 -6.23674675 42.14206026 -6.24023438 39.40332031 C-6.24571738 35.90059477 -6.26974542 32.39825828 -6.29820633 28.89565468 C-6.32135257 25.54763144 -6.32328351 22.1996616 -6.328125 18.8515625 C-6.3404718 17.59622711 -6.3528186 16.34089172 -6.36553955 15.04751587 C-6.36253845 13.87635223 -6.35953735 12.7051886 -6.35644531 11.49853516 C-6.36009094 10.47055817 -6.36373657 9.44258118 -6.36749268 8.38345337 C-5.77739967 3.85377169 -4.66635865 0.87494225 0 0 Z " fill="#4141D6" transform="translate(426,47.4375)"/>
<path d="M0 0 C1.42651634 -0.00934319 1.42651634 -0.00934319 2.8818512 -0.01887512 C3.9017363 -0.00966537 4.9216214 -0.00045563 5.97241211 0.0090332 C7.02504745 0.0085347 8.0776828 0.00803619 9.16221619 0.00752258 C11.3855071 0.00986143 13.60880074 0.01957872 15.83203125 0.03613281 C19.24039293 0.05974958 22.64797364 0.05668909 26.05639648 0.05004883 C28.21590637 0.05562482 30.37541295 0.0627342 32.53491211 0.0715332 C33.55682144 0.0706218 34.57873077 0.06971039 35.63160706 0.06877136 C36.57946579 0.07830338 37.52732452 0.08783539 38.50390625 0.09765625 C39.33789444 0.10226364 40.17188263 0.10687103 41.03114319 0.11161804 C43.18725586 0.37231445 43.18725586 0.37231445 46.18725586 2.37231445 C47.58173873 6.55576307 48.01050499 10.44229056 46.24584961 14.5793457 C42.9021258 17.49162128 39.26760499 16.79395262 34.99975586 16.62231445 C34.15477539 16.60426758 33.30979492 16.5862207 32.43920898 16.56762695 C30.35474013 16.52052031 28.27085441 16.44877679 26.18725586 16.37231445 C26.19391769 17.2337355 26.20057953 18.09515656 26.20744324 18.98268127 C26.26766585 27.11849836 26.31328685 35.2542401 26.34269238 43.39022923 C26.35831852 47.57258714 26.37950063 51.75476018 26.41357422 55.93701172 C26.44627709 59.97650394 26.46413181 64.01581883 26.47188759 68.05543327 C26.47741155 69.59314704 26.48819847 71.1308516 26.50444603 72.66848946 C26.52636637 74.82982138 26.52921682 76.99042948 26.52783203 79.15185547 C26.53449387 80.37985367 26.5411557 81.60785187 26.54801941 82.87306213 C26.1167398 87.05629009 25.15422895 89.66366934 23.18725586 93.37231445 C20.31225586 94.62231445 20.31225586 94.62231445 17.18725586 94.37231445 C13.80304166 91.74960912 12.34646173 90.26532583 11.58598328 85.99967957 C11.59708633 84.71394547 11.60818939 83.42821136 11.61962891 82.10351562 C11.61889877 81.39077484 11.61816864 80.67803406 11.61741638 79.94369507 C11.6208854 77.60010266 11.65970879 75.25852603 11.69897461 72.9152832 C11.7083053 71.28576239 11.71542021 69.6562275 11.72041321 68.02668762 C11.73946317 63.74704966 11.78854569 59.46826622 11.84393311 55.18896484 C11.89516942 50.81855834 11.91793654 46.44801314 11.94311523 42.07739258 C11.99666729 33.50864196 12.08195466 24.94058464 12.18725586 16.37231445 C10.29040039 16.42452148 10.29040039 16.42452148 8.35522461 16.4777832 C6.69508163 16.50592122 5.0349243 16.53322137 3.37475586 16.55981445 C2.54137695 16.58495117 1.70799805 16.61008789 0.84936523 16.63598633 C-0.35429687 16.65048828 -0.35429687 16.65048828 -1.58227539 16.6652832 C-2.68986206 16.68884888 -2.68986206 16.68884888 -3.81982422 16.71289062 C-6.37952929 16.27545481 -7.24125292 15.40109382 -8.81274414 13.37231445 C-9.24633789 10.99731445 -9.24633789 10.99731445 -9.25024414 8.37231445 C-9.26958008 7.50606445 -9.28891602 6.63981445 -9.30883789 5.74731445 C-8.81274414 3.37231445 -8.81274414 3.37231445 -7.08253479 1.74714661 C-4.4636109 0.16084138 -3.03753157 -0.00229029 0 0 Z " fill="#4141D6" transform="translate(501.812744140625,23.627685546875)"/>
<path d="M0 0 C2.64 0 5.28 0 8 0 C10.66910333 4.60293561 11.36886218 7.89981891 11.34057617 13.19873047 C11.34101425 13.89211014 11.34145233 14.58548981 11.34190369 15.29988098 C11.33982763 17.57261137 11.31655403 19.84458733 11.29296875 22.1171875 C11.28736855 23.70044553 11.28310046 25.28370878 11.28010559 26.86697388 C11.2686901 31.01976045 11.2392517 35.17222871 11.20599365 39.32489014 C11.17522138 43.56811213 11.16158501 47.81138591 11.14648438 52.0546875 C11.11437848 60.3699372 11.06322249 68.68492892 11 77 C11.85754883 76.97905273 12.71509766 76.95810547 13.59863281 76.93652344 C16.78918472 76.86823473 19.97936346 76.81814487 23.17041016 76.78027344 C24.5497668 76.76019358 25.92903869 76.73292334 27.30810547 76.69824219 C29.29356979 76.64957183 31.27966254 76.62913582 33.265625 76.609375 C35.05661621 76.5779541 35.05661621 76.5779541 36.88378906 76.54589844 C40.60789704 77.08858418 41.75096786 78.04369073 44 81 C44.49609375 83.25390625 44.49609375 83.25390625 44.4375 85.5625 C44.43621094 86.32691406 44.43492187 87.09132813 44.43359375 87.87890625 C43.89139978 90.53126053 43.08702298 91.31202985 41 93 C37.95137475 93.29847993 35.11139905 93.42021845 32.0625 93.3984375 C31.18601807 93.40130768 30.30953613 93.40417786 29.40649414 93.40713501 C27.55386712 93.40917598 25.70121858 93.40364378 23.84863281 93.39111328 C21.01057821 93.37505984 18.17394773 93.39096055 15.3359375 93.41015625 C13.53645519 93.40817382 11.73697376 93.40433016 9.9375 93.3984375 C9.08744385 93.40451019 8.2373877 93.41058289 7.36157227 93.4168396 C1.43620714 93.34599415 1.43620714 93.34599415 -0.68530273 91.66323853 C-3.60797935 87.96572695 -3.15435576 83.78837424 -3.16113281 79.3190918 C-3.16609772 78.53825226 -3.17106262 77.75741272 -3.17617798 76.95291138 C-3.19078895 74.36833821 -3.19760007 71.78382644 -3.203125 69.19921875 C-3.20887764 67.40184019 -3.21463536 65.60446165 -3.22039795 63.80708313 C-3.23090512 60.03683181 -3.23674954 56.26660179 -3.24023438 52.49633789 C-3.24571636 47.67097405 -3.26973922 42.84589277 -3.29820633 38.02061749 C-3.31685333 34.30680017 -3.32203942 30.59305061 -3.32357025 26.87919044 C-3.32659301 25.10062936 -3.33460881 23.32206937 -3.34775543 21.54355431 C-3.36485805 19.05184979 -3.36292549 16.5608316 -3.35644531 14.0690918 C-3.3656601 13.33796677 -3.37487488 12.60684174 -3.3843689 11.8535614 C-3.34633189 7.17191442 -2.37949712 4.01866311 0 0 Z " fill="#4141D6" transform="translate(221,23)"/>
<path d="M0 0 C3.0625 0.5625 3.0625 0.5625 5.4375 3.0625 C5.97375 3.8875 6.51 4.7125 7.0625 5.5625 C7.701875 4.7375 8.34125 3.9125 9 3.0625 C12.59186048 0.130369 14.33594993 -0.19978531 18.83984375 0.0859375 C22.87763732 0.95168586 24.39335861 2.35953033 27.0625 5.5625 C28.24437169 9.11515003 28.37637884 12.33837254 27.4375 16 C26.0625 17.5625 26.0625 17.5625 24 18.375 C19.94695805 18.63370481 16.07405118 18.13058459 12.0625 17.5625 C9.23464538 21.98870722 7.98974804 25.4020612 7.82885742 30.625 C7.80180222 31.41261719 7.77474701 32.20023438 7.74687195 33.01171875 C7.72083389 33.85347656 7.69479584 34.69523437 7.66796875 35.5625 C7.59921063 37.35420156 7.52952069 39.14586756 7.45898438 40.9375 C7.35150605 43.7550553 7.24970066 46.57232315 7.16381836 49.390625 C7.07842684 52.11554212 6.9689582 54.83862742 6.85546875 57.5625 C6.83550339 58.40425781 6.81553802 59.24601562 6.79496765 60.11328125 C6.61804155 63.92986837 6.48947595 65.97153605 4.20825195 69.12890625 C2.0625 70.5625 2.0625 70.5625 -1.0625 70.5 C-3.9375 69.5625 -3.9375 69.5625 -5.9375 66.5625 C-6.19819641 63.87489319 -6.19819641 63.87489319 -6.2121582 60.59399414 C-6.22169022 59.36584488 -6.23122223 58.13769562 -6.24104309 56.87232971 C-6.24078166 55.5307716 -6.23984459 54.18921348 -6.23828125 52.84765625 C-6.24216863 51.47146983 -6.24650338 50.09528462 -6.25126648 48.71910095 C-6.25872739 45.8349112 -6.25843847 42.95084386 -6.25317383 40.06665039 C-6.24738015 36.37323126 -6.26430772 32.68031377 -6.2875185 28.98697758 C-6.30226126 26.14478127 -6.30312683 23.3027056 -6.30000877 20.46047783 C-6.30052175 19.09893233 -6.30575508 17.73738004 -6.31582069 16.37587166 C-6.32817633 14.47075358 -6.31945196 12.56553416 -6.30981445 10.66040039 C-6.31044388 9.57690811 -6.3110733 8.49341583 -6.3117218 7.37709045 C-5.72482621 2.96294163 -4.434037 0.84907092 0 0 Z " fill="#4141D6" transform="translate(386.9375,47.4375)"/>
</svg>
